<svg xmlns="http://www.w3.org/2000/svg" width="300" height="400" preserveAspectRatio="none" viewBox="0 0 300 400">
    <g mask="url(&quot;#SvgjsMask3936&quot;)" fill="none">
        <rect width="300" height="400" x="0" y="0" fill="url(#SvgjsLinearGradient3937)"></rect>
        <!-- <path d="M50.09 20.34 A40 40 0 1 0 50 70 30 30 0 1 1 50 20z" stroke-width="2" fill="#FEFCD7"/> -->
        <path d="M250.09 150.32l.45-7.42-5.86-4.58 7.2-1.86 2.55-6.99 3.99 6.27 7.44.26-4.73 5.74 2.05 7.15-6.92-2.72-6.17 4.15z" fill="yellow"/>
        <path d="M110.09 160.32l.45-7.42-5.86-4.58 7.2-1.86 2.55-6.99 3.99 6.27 7.44.26-4.73 5.74 2.05 7.15-6.92-2.72-6.17 4.15z" fill="yellow"/>
        <path d="M28.03 200.9l.45-7.42-5.86-4.58 7.2-1.86 2.55-6.99 3.99 6.27 7.44.26-4.73 5.74 2.05 7.15-6.92-2.72-6.17 4.15z" fill="yellow"/>
        <path d="M188.03 190.9l.45-7.42-5.86-4.58 7.2-1.86 2.55-6.99 3.99 6.27 7.44.26-4.73 5.74 2.05 7.15-6.92-2.72-6.17 4.15z" fill="yellow"/>
        <path d="M305 400L0 400 L0 247.18Q-8.11 214.07, 25 205.96Q63.95 229.91, 40 268.85Q39.9 253.75, 55 253.66Q49.95 223.61, 80 218.56Q86.32 199.88, 105 206.21Q113.37 199.58, 120 207.95Q137.66 210.61, 135 228.27Q171.38 239.65, 160 276.03Q154.8 245.83, 185 240.63Q180.78 211.41, 210 207.2Q257.48 229.67, 235 277.15Q217.48 244.63, 250 227.1Q294.29 246.39, 275 290.69Q261.66 262.35, 290 249Q311.54 255.54, 305 277.08z" fill="rgba(253, 254, 255, 1)"></path>
        <path d="M325 400L0 400 L0 308.62Q19.64 303.26, 25 322.91Q54.28 327.19, 50 356.47Q24.67 306.14, 75 280.82Q97.75 288.56, 90 311.31Q125.45 321.76, 115 357.22Q83.17 310.39, 130 278.57Q157.6 291.17, 145 318.77Q159.84 318.61, 160 333.44Q178.35 326.79, 185 345.15Q185.29 320.44, 210 320.73Q208.36 294.09, 235 292.44Q239.77 272.21, 260 276.97Q289.3 291.27, 275 320.58Q273.67 294.25, 300 292.91Q304.67 272.58, 325 277.25z" fill="rgba(234, 236, 239, 1)"></path>
        <path d="M325 400L0 400 L0 413.35Q-7.73 380.62, 25 372.89Q32.38 355.26, 50 362.64Q45.48 343.12, 65 338.6Q119.74 368.34, 90 423.08Q82.59 400.67, 105 393.27Q96.39 359.66, 130 351.05Q166.46 372.51, 145 408.98Q165.3 404.28, 170 424.58Q142.07 381.65, 185 353.73Q187.24 340.97, 200 343.2Q237.7 355.9, 225 393.61Q247.26 390.87, 250 413.13Q256.13 394.26, 275 400.39Q280.53 380.92, 300 386.46Q292.71 354.17, 325 346.88z" fill="rgba(253, 254, 255, 1)"></path>
    </g>
    <defs>
        <mask id="SvgjsMask3936">
            <rect width="300" height="400" fill="#ffffff"></rect>
        </mask>
        <linearGradient x1="50%" y1="0%" x2="50%" y2="100%" gradientUnits="userSpaceOnUse" id="SvgjsLinearGradient3937">
            <stop stop-color="rgba(45, 45, 45, 1)" offset="0.28"></stop>
            <stop stop-color="rgba(255, 95, 109, 1)" offset="1"></stop>
        </linearGradient>
    </defs>
</svg>